<svg xmlns="http://www.w3.org/2000/svg" id="Layer_1" viewBox="0 0 100 100"><defs><style>.cls-1{fill:#5384fb;}.cls-2{font-family:Montserrat-Black, Montserrat;font-size:27.31px;}.cls-2,.cls-3{fill:none;stroke:#5384fb;stroke-miterlimit:10;stroke-width:2px;}</style></defs><g><path class="cls-3" d="M38.43,55.42H5.56c-2.03,0-3.68-1.65-3.68-3.68V7.86c0-2.03,1.65-3.68,3.68-3.68H57.88c2.03,0,3.68,1.65,3.68,3.68V44.83"/><line class="cls-3" x1="1.87" y1="15.01" x2="61.57" y2="15.01"/><g><circle class="cls-3" cx="7.62" cy="9.6" r="1.58"/><circle class="cls-3" cx="14.64" cy="9.6" r="1.58"/><circle class="cls-3" cx="21.66" cy="9.6" r="1.58"/></g><text class="cls-2" transform="translate(21.32 44.83)"><tspan x="0" y="0">$</tspan></text></g><g><rect class="cls-3" x="38.43" y="44.58" width="59.69" height="51.25" rx="3.35" ry="3.35"/><line class="cls-3" x1="38.43" y1="55.42" x2="98.13" y2="55.42"/><g><circle class="cls-3" cx="43.86" cy="50" r="1.58"/><circle class="cls-3" cx="50.88" cy="50" r="1.58"/><circle class="cls-3" cx="57.9" cy="50" r="1.58"/></g></g><g><polygon class="cls-1" points="61.83 71.62 54.03 75.48 61.83 79.3 61.83 81.59 61.77 81.72 51.04 76.46 51.04 74.51 61.75 69.2 61.83 69.35 61.83 71.62"/><polygon class="cls-1" points="85.47 74.43 85.47 76.4 74.76 81.63 74.72 81.57 74.72 79.2 82.48 75.41 74.72 71.56 74.72 69.18 74.76 69.11 85.47 74.43"/><polygon class="cls-1" points="72.6 66.24 66.25 83.58 63.91 83.58 70.27 66.24 72.6 66.24"/></g></svg>